<svg width="24" height="24" fill="none" xmlns="http://www.w3.org/2000/svg"><path d="M16.032 3H7.967A4.973 4.973 0 0 0 3 7.967v8.066A4.973 4.973 0 0 0 7.967 21h8.066A4.973 4.973 0 0 0 21 16.033V7.967A4.973 4.973 0 0 0 16.032 3Zm3.371 13.033a3.374 3.374 0 0 1-3.37 3.37H7.967a3.374 3.374 0 0 1-3.37-3.37V7.967a3.374 3.374 0 0 1 3.37-3.37h8.066a3.374 3.374 0 0 1 3.37 3.37v8.066Z" fill="currentColor"/><path d="M12 7.362A4.643 4.643 0 0 0 7.362 12 4.643 4.643 0 0 0 12 16.638 4.643 4.643 0 0 0 16.638 12 4.643 4.643 0 0 0 12 7.362Zm0 7.679a3.044 3.044 0 0 1-3.041-3.04A3.045 3.045 0 0 1 12 8.958 3.045 3.045 0 0 1 15.041 12 3.044 3.044 0 0 1 12 15.041ZM16.833 6.008a1.176 1.176 0 0 0-1.171 1.171c0 .308.125.61.343.828.218.218.52.343.828.343.308 0 .61-.125.828-.343a1.176 1.176 0 0 0 0-1.657 1.176 1.176 0 0 0-.828-.342Z" fill="currentColor"/></svg>